<?xml version="1.0" encoding="UTF-8" standalone="no"?>
<svg
   xmlns:dc="http://purl.org/dc/elements/1.1/"
   xmlns:cc="http://creativecommons.org/ns#"
   xmlns:rdf="http://www.w3.org/1999/02/22-rdf-syntax-ns#"
   xmlns:svg="http://www.w3.org/2000/svg"
   xmlns="http://www.w3.org/2000/svg"
   xmlns:sodipodi="http://sodipodi.sourceforge.net/DTD/sodipodi-0.dtd"
   xmlns:inkscape="http://www.inkscape.org/namespaces/inkscape"
   inkscape:version="1.0 (4035a4f, 2020-05-01)"
   sodipodi:docname="mltc-logo-plain-white.svg"
   width="300"
   height="300"
   viewBox="0 0 79.374998 79.375002"
   version="1.1"
   id="svg8">
  <sodipodi:namedview
     inkscape:current-layer="svg8"
     inkscape:window-maximized="0"
     inkscape:window-y="23"
     inkscape:window-x="0"
     inkscape:cy="135.38961"
     inkscape:cx="109.09091"
     inkscape:zoom="2.0533333"
     showgrid="false"
     id="namedview35"
     inkscape:window-height="748"
     inkscape:window-width="735"
     inkscape:pageshadow="2"
     inkscape:pageopacity="0"
     guidetolerance="10"
     gridtolerance="10"
     objecttolerance="10"
     borderopacity="1"
     bordercolor="#666666"
     pagecolor="#ffffff" />
  <defs
     id="defs2">
    <rect
       id="rect840"
       height="68.116332"
       width="66.083009"
       y="5.6933054"
       x="5.2866407" />
  </defs>
  <metadata
     id="metadata5">
    <rdf:RDF>
      <cc:Work
         rdf:about="">
        <dc:format>image/svg+xml</dc:format>
        <dc:type
           rdf:resource="http://purl.org/dc/dcmitype/StillImage" />
        <dc:title></dc:title>
      </cc:Work>
    </rdf:RDF>
  </metadata>
  <g
     style="fill:#ffffff"
     id="layer1">
    <g
       aria-label="Moms Learn to Code"
       transform="translate(1.3273606,11.26681)"
       id="text838"
       style="font-style:normal;font-variant:normal;font-weight:normal;font-stretch:normal;font-size:11.28889999999999993px;line-height:1.4;font-family:'Space Mono';-inkscape-font-specification:'Space Mono';white-space:pre;shape-inside:url(#rect840);fill:#ffffff;fill-opacity:1;stroke:none">
      <path
         d="m 24.774036,8.5860923 h 2.619025 l 0.451556,5.9379617 v 1.151468 h 0.270934 v -1.151468 l 0.451556,-5.9379617 h 2.619025 V 16.488323 H 29.831464 V 11.205117 L 29.96693,9.3988931 H 29.695997 L 29.108974,16.488323 H 26.873772 L 26.264171,9.3988931 h -0.270934 l 0.135467,1.8062239 v 5.283206 h -1.354668 z"
         style="font-style:normal;font-variant:normal;font-weight:bold;font-stretch:normal;font-family:'Space Mono';-inkscape-font-specification:'Space Mono Bold';text-align:center;text-anchor:middle;fill:#ffffff"
         id="path933" />
      <path
         d="m 37.793842,13.756409 q 0,0.699912 -0.237066,1.241779 -0.237067,0.530578 -0.643468,0.903112 -0.4064,0.361245 -0.936979,0.553156 -0.519289,0.191911 -1.095023,0.191911 -0.575734,0 -1.106312,-0.191911 -0.51929,-0.191911 -0.92569,-0.553156 -0.4064,-0.372534 -0.643467,-0.903112 -0.237067,-0.541867 -0.237067,-1.241779 v -0.135467 q 0,-0.688623 0.237067,-1.219201 0.237067,-0.541868 0.643467,-0.914401 0.4064,-0.372534 0.92569,-0.564445 0.530578,-0.191912 1.106312,-0.191912 0.575734,0 1.095023,0.191912 0.530579,0.191911 0.936979,0.564445 0.406401,0.372533 0.643468,0.914401 0.237066,0.530578 0.237066,1.219201 z m -2.912536,1.53529 q 0.3048,0 0.575734,-0.1016 0.270934,-0.1016 0.474134,-0.293511 0.2032,-0.191912 0.316089,-0.462845 0.124178,-0.282223 0.124178,-0.632179 v -0.225778 q 0,-0.349956 -0.124178,-0.620889 -0.112889,-0.282223 -0.316089,-0.474134 -0.2032,-0.191911 -0.474134,-0.293511 -0.270934,-0.101601 -0.575734,-0.101601 -0.3048,0 -0.575734,0.101601 -0.270933,0.1016 -0.474134,0.293511 -0.2032,0.191911 -0.327378,0.474134 -0.112889,0.270933 -0.112889,0.620889 v 0.225778 q 0,0.349956 0.112889,0.632179 0.124178,0.270933 0.327378,0.462845 0.203201,0.191911 0.474134,0.293511 0.270934,0.1016 0.575734,0.1016 z"
         style="font-style:normal;font-variant:normal;font-weight:bold;font-stretch:normal;font-family:'Space Mono';-inkscape-font-specification:'Space Mono Bold';text-align:center;text-anchor:middle;fill:#ffffff"
         id="path935" />
      <path
         d="M 44.830531,16.488323 H 43.40813 v -3.928538 q 0,-0.237067 -0.124178,-0.349956 -0.112889,-0.124178 -0.3048,-0.124178 -0.225778,0 -0.361245,0.135467 -0.124178,0.135467 -0.124178,0.406401 v 3.860804 h -1.422401 v -3.928538 q 0,-0.237067 -0.135467,-0.349956 -0.124178,-0.124178 -0.3048,-0.124178 -0.203201,0 -0.338667,0.135467 -0.135467,0.135467 -0.135467,0.406401 v 3.860804 h -1.422402 v -5.599295 h 1.422402 v 0.541867 h 0.2032 q 0.06773,-0.3048 0.3048,-0.496711 0.248356,-0.203201 0.643468,-0.203201 0.372533,0 0.632178,0.203201 0.259645,0.191911 0.349956,0.496711 h 0.2032 q 0.09031,-0.3048 0.372534,-0.496711 0.293511,-0.203201 0.722489,-0.203201 0.564445,0 0.903112,0.383823 0.338667,0.372534 0.338667,1.038579 z"
         style="font-style:normal;font-variant:normal;font-weight:bold;font-stretch:normal;font-family:'Space Mono';-inkscape-font-specification:'Space Mono Bold';text-align:center;text-anchor:middle;fill:#ffffff"
         id="path937" />
      <path
         d="m 47.893528,12.469474 q 0,0.270934 0.282222,0.395112 0.282223,0.112889 1.02729,0.191911 0.857956,0.09031 1.399824,0.519289 0.541867,0.41769 0.541867,1.174046 v 0.06773 q 0,0.835379 -0.609601,1.332091 -0.6096,0.496711 -1.715913,0.496711 -0.654756,0 -1.117601,-0.169333 -0.462845,-0.169334 -0.767645,-0.41769 -0.3048,-0.259644 -0.474134,-0.564445 -0.158044,-0.316089 -0.214489,-0.6096 l 1.309513,-0.428978 q 0.09031,0.361244 0.372533,0.632178 0.293512,0.270934 0.891823,0.270934 0.530579,0 0.72249,-0.158045 0.2032,-0.169334 0.2032,-0.361245 0,-0.112889 -0.05644,-0.2032 -0.04516,-0.1016 -0.180623,-0.180622 -0.135466,-0.09031 -0.372533,-0.146756 -0.225778,-0.05645 -0.575734,-0.09031 -0.948268,-0.07902 -1.512713,-0.485423 -0.553156,-0.417689 -0.553156,-1.219201 v -0.06773 q 0,-0.417689 0.180622,-0.733778 0.180623,-0.316089 0.474134,-0.530579 0.293512,-0.225778 0.677334,-0.338667 0.383823,-0.112889 0.790223,-0.112889 0.530579,0 0.914401,0.135467 0.395112,0.124178 0.666045,0.338667 0.270934,0.2032 0.440267,0.462845 0.169334,0.248356 0.259645,0.485423 l -1.286935,0.519289 q -0.1016,-0.3048 -0.349955,-0.474134 -0.248356,-0.180622 -0.643468,-0.180622 -0.361245,0 -0.541867,0.135467 -0.180622,0.124178 -0.180622,0.316089 z"
         style="font-style:normal;font-variant:normal;font-weight:bold;font-stretch:normal;font-family:'Space Mono';-inkscape-font-specification:'Space Mono Bold';text-align:center;text-anchor:middle;fill:#ffffff"
         id="path939" />
      <path
         d="m 22.000759,24.390553 h 1.490135 v 6.479829 h 3.58987 v 1.422401 h -5.080005 z"
         style="font-style:normal;font-variant:normal;font-weight:bold;font-stretch:normal;font-family:'Space Mono';-inkscape-font-specification:'Space Mono Bold';text-align:center;text-anchor:middle;fill:#ffffff"
         id="path941" />
      <path
         d="m 30.109894,29.955981 q 0.01129,0.248356 0.112889,0.462845 0.112889,0.2032 0.293511,0.361244 0.191911,0.146756 0.428978,0.237067 0.248356,0.07902 0.51929,0.07902 0.530578,0 0.812801,-0.180623 0.282222,-0.191911 0.4064,-0.451556 l 1.219201,0.677334 q -0.1016,0.214489 -0.282222,0.451556 -0.180623,0.225778 -0.474134,0.41769 -0.282223,0.191911 -0.699912,0.316089 -0.4064,0.124178 -0.959557,0.124178 -0.632178,0 -1.151467,-0.2032 -0.51929,-0.203201 -0.903112,-0.587023 -0.372534,-0.383823 -0.587023,-0.936979 -0.2032,-0.553156 -0.2032,-1.253068 v -0.06773 q 0,-0.643468 0.214489,-1.174046 0.225778,-0.530578 0.6096,-0.903112 0.383823,-0.372534 0.891823,-0.575734 0.51929,-0.214489 1.106313,-0.214489 0.722489,0 1.241779,0.259645 0.519289,0.248355 0.857956,0.643467 0.338667,0.383823 0.496712,0.857956 0.158044,0.462845 0.158044,0.903112 v 0.756357 z m 1.343379,-2.133602 q -0.541867,0 -0.880534,0.282222 -0.338667,0.270934 -0.440268,0.632178 h 2.641603 q -0.06773,-0.395111 -0.428978,-0.654756 -0.349956,-0.259644 -0.891823,-0.259644 z"
         style="font-style:normal;font-variant:normal;font-weight:bold;font-stretch:normal;font-family:'Space Mono';-inkscape-font-specification:'Space Mono Bold';text-align:center;text-anchor:middle;fill:#ffffff"
         id="path943" />
      <path
         d="m 39.381785,31.479982 q -0.225778,0.530579 -0.632178,0.756357 -0.406401,0.214489 -0.948268,0.214489 -0.508001,0 -0.959557,-0.191912 -0.440267,-0.191911 -0.778934,-0.564445 -0.338667,-0.372533 -0.541867,-0.903112 -0.191911,-0.530578 -0.191911,-1.207912 v -0.180622 q 0,-0.666046 0.191911,-1.196624 0.191911,-0.530578 0.519289,-0.903112 0.327379,-0.372534 0.756357,-0.564445 0.440267,-0.2032 0.936979,-0.2032 0.598311,0 0.959556,0.2032 0.372534,0.2032 0.587023,0.632179 h 0.2032 v -0.677334 h 1.422402 v 3.905959 q 0,0.338667 0.3048,0.338667 h 0.214489 v 1.354668 H 40.45423 q -0.383822,0 -0.632178,-0.225778 -0.237067,-0.225778 -0.237067,-0.587023 z M 38.117428,31.09616 q 0.62089,0 0.993423,-0.406401 0.372534,-0.417689 0.372534,-1.12889 v -0.135467 q 0,-0.7112 -0.372534,-1.117601 -0.372533,-0.417689 -0.993423,-0.417689 -0.620889,0 -0.993423,0.417689 -0.372534,0.406401 -0.372534,1.117601 v 0.135467 q 0,0.711201 0.372534,1.12889 0.372534,0.406401 0.993423,0.406401 z"
         style="font-style:normal;font-variant:normal;font-weight:bold;font-stretch:normal;font-family:'Space Mono';-inkscape-font-specification:'Space Mono Bold';text-align:center;text-anchor:middle;fill:#ffffff"
         id="path945" />
      <path
         d="m 42.388337,26.693489 h 2.370669 v 0.8128 h 0.2032 q 0.158044,-0.462845 0.530578,-0.7112 0.383823,-0.259645 0.914401,-0.259645 0.835379,0 1.343379,0.530578 0.508001,0.51929 0.508001,1.591735 v 0.248356 l -1.467557,0.135467 v -0.158045 q 0,-0.462845 -0.237067,-0.733778 -0.237067,-0.282223 -0.711201,-0.282223 -0.474134,0 -0.745067,0.327378 -0.270934,0.327378 -0.270934,0.936979 v 1.806224 h 1.286935 v 1.354668 H 42.25287 v -1.354668 h 1.151468 v -2.889958 h -1.016001 z"
         style="font-style:normal;font-variant:normal;font-weight:bold;font-stretch:normal;font-family:'Space Mono';-inkscape-font-specification:'Space Mono Bold';text-align:center;text-anchor:middle;fill:#ffffff"
         id="path947" />
      <path
         d="m 50.982894,32.292783 h -1.422402 v -5.599294 h 1.422402 v 0.835378 h 0.2032 q 0.191911,-0.474134 0.62089,-0.733778 0.428978,-0.259645 1.004712,-0.259645 0.4064,0 0.756356,0.135467 0.361245,0.124178 0.632178,0.395111 0.270934,0.270934 0.41769,0.688623 0.158044,0.417689 0.158044,0.993423 v 3.544715 h -1.422401 v -3.18347 q 0,-0.598312 -0.293511,-0.936979 -0.282223,-0.349955 -0.82409,-0.349955 -0.632179,0 -0.948268,0.428978 -0.3048,0.417689 -0.3048,1.12889 z"
         style="font-style:normal;font-variant:normal;font-weight:bold;font-stretch:normal;font-family:'Space Mono';-inkscape-font-specification:'Space Mono Bold';text-align:center;text-anchor:middle;fill:#ffffff"
         id="path949" />
      <path
         d="m 14.896337,42.497949 h 1.659468 v -2.302936 h 1.422401 v 2.302936 h 2.020714 v 1.354668 h -2.020714 v 2.551292 q 0,0.338667 0.304801,0.338667 h 1.512712 v 1.354668 H 17.42505 q -0.383822,0 -0.632178,-0.248356 -0.237067,-0.248356 -0.237067,-0.632179 v -3.364092 h -1.659468 z"
         style="font-style:normal;font-variant:normal;font-weight:bold;font-stretch:normal;font-family:'Space Mono';-inkscape-font-specification:'Space Mono Bold';text-align:center;text-anchor:middle;fill:#ffffff"
         id="path951" />
      <path
         d="m 27.442009,45.36533 q 0,0.699912 -0.237067,1.241779 -0.237067,0.530578 -0.643467,0.903112 -0.406401,0.361245 -0.936979,0.553156 -0.519289,0.191911 -1.095023,0.191911 -0.575734,0 -1.106313,-0.191911 -0.519289,-0.191911 -0.925689,-0.553156 -0.406401,-0.372534 -0.643468,-0.903112 -0.237067,-0.541867 -0.237067,-1.241779 v -0.135467 q 0,-0.688623 0.237067,-1.219201 0.237067,-0.541868 0.643468,-0.914401 0.4064,-0.372534 0.925689,-0.564445 0.530579,-0.191912 1.106313,-0.191912 0.575734,0 1.095023,0.191912 0.530578,0.191911 0.936979,0.564445 0.4064,0.372533 0.643467,0.914401 0.237067,0.530578 0.237067,1.219201 z m -2.912536,1.53529 q 0.3048,0 0.575734,-0.1016 0.270933,-0.1016 0.474133,-0.293511 0.203201,-0.191912 0.31609,-0.462845 0.124178,-0.282223 0.124178,-0.632179 v -0.225778 q 0,-0.349956 -0.124178,-0.620889 -0.112889,-0.282223 -0.31609,-0.474134 -0.2032,-0.191911 -0.474133,-0.293511 -0.270934,-0.101601 -0.575734,-0.101601 -0.304801,0 -0.575734,0.101601 -0.270934,0.1016 -0.474134,0.293511 -0.2032,0.191911 -0.327378,0.474134 -0.112889,0.270933 -0.112889,0.620889 v 0.225778 q 0,0.349956 0.112889,0.632179 0.124178,0.270933 0.327378,0.462845 0.2032,0.191911 0.474134,0.293511 0.270933,0.1016 0.575734,0.1016 z"
         style="font-style:normal;font-variant:normal;font-weight:bold;font-stretch:normal;font-family:'Space Mono';-inkscape-font-specification:'Space Mono Bold';text-align:center;text-anchor:middle;fill:#ffffff"
         id="path953" />
      <path
         d="m 38.354495,46.90062 q 0.428978,0 0.699912,-0.124178 0.282222,-0.135467 0.428978,-0.349956 0.158045,-0.225778 0.214489,-0.508 0.05645,-0.293512 0.05645,-0.598312 v -0.2032 h 1.490134 v 0.2032 q 0,1.411113 -0.745067,2.178758 -0.733778,0.756356 -2.144891,0.756356 -1.354668,0 -2.144891,-0.824089 -0.790223,-0.82409 -0.790223,-2.404536 v -1.761069 q 0,-0.756356 0.2032,-1.354668 0.2032,-0.6096 0.587023,-1.016001 0.383822,-0.417689 0.92569,-0.632178 0.541867,-0.225778 1.219201,-0.225778 0.699912,0 1.241779,0.2032 0.541867,0.2032 0.903112,0.587023 0.372534,0.383822 0.553156,0.92569 0.191911,0.541867 0.191911,1.219201 v 0.2032 h -1.490134 v -0.2032 q 0,-0.282223 -0.06773,-0.564445 -0.06773,-0.282223 -0.225778,-0.508001 -0.158044,-0.225778 -0.428978,-0.361244 -0.270934,-0.146756 -0.677334,-0.146756 -0.372534,0 -0.643467,0.146756 -0.270934,0.135466 -0.451556,0.383822 -0.180623,0.237067 -0.270934,0.564445 -0.07902,0.316089 -0.07902,0.666045 v 1.986847 q 0,0.383822 0.07902,0.7112 0.07902,0.31609 0.248356,0.553157 0.169333,0.237066 0.440267,0.372533 0.282222,0.124178 0.677334,0.124178 z"
         style="font-style:normal;font-variant:normal;font-weight:bold;font-stretch:normal;font-family:'Space Mono';-inkscape-font-specification:'Space Mono Bold';text-align:center;text-anchor:middle;fill:#ffffff"
         id="path955" />
      <path
         d="m 48.145676,45.36533 q 0,0.699912 -0.237067,1.241779 -0.237067,0.530578 -0.643468,0.903112 -0.4064,0.361245 -0.936978,0.553156 -0.51929,0.191911 -1.095024,0.191911 -0.575734,0 -1.106312,-0.191911 -0.519289,-0.191911 -0.92569,-0.553156 -0.4064,-0.372534 -0.643467,-0.903112 -0.237067,-0.541867 -0.237067,-1.241779 v -0.135467 q 0,-0.688623 0.237067,-1.219201 0.237067,-0.541868 0.643467,-0.914401 0.406401,-0.372534 0.92569,-0.564445 0.530578,-0.191912 1.106312,-0.191912 0.575734,0 1.095024,0.191912 0.530578,0.191911 0.936978,0.564445 0.406401,0.372533 0.643468,0.914401 0.237067,0.530578 0.237067,1.219201 z m -2.912537,1.53529 q 0.304801,0 0.575734,-0.1016 0.270934,-0.1016 0.474134,-0.293511 0.2032,-0.191912 0.316089,-0.462845 0.124178,-0.282223 0.124178,-0.632179 v -0.225778 q 0,-0.349956 -0.124178,-0.620889 -0.112889,-0.282223 -0.316089,-0.474134 -0.2032,-0.191911 -0.474134,-0.293511 -0.270933,-0.101601 -0.575734,-0.101601 -0.3048,0 -0.575734,0.101601 -0.270933,0.1016 -0.474133,0.293511 -0.203201,0.191911 -0.327378,0.474134 -0.112889,0.270933 -0.112889,0.620889 v 0.225778 q 0,0.349956 0.112889,0.632179 0.124177,0.270933 0.327378,0.462845 0.2032,0.191911 0.474133,0.293511 0.270934,0.1016 0.575734,0.1016 z"
         style="font-style:normal;font-variant:normal;font-weight:bold;font-stretch:normal;font-family:'Space Mono';-inkscape-font-specification:'Space Mono Bold';text-align:center;text-anchor:middle;fill:#ffffff"
         id="path957" />
      <path
         d="m 53.579341,47.284443 h -0.2032 q -0.09031,0.191911 -0.225778,0.372534 -0.124178,0.169333 -0.338667,0.3048 -0.203201,0.135467 -0.496712,0.214489 -0.282222,0.07902 -0.688623,0.07902 -0.519289,0 -0.970845,-0.180622 -0.440267,-0.191911 -0.778934,-0.553156 -0.327379,-0.372534 -0.51929,-0.903112 -0.180622,-0.530579 -0.180622,-1.219202 v -0.2032 q 0,-0.677334 0.191911,-1.207912 0.2032,-0.530578 0.541867,-0.891823 0.349956,-0.372534 0.801512,-0.564445 0.462845,-0.191912 0.970846,-0.191912 0.677334,0 1.072445,0.259645 0.395112,0.248356 0.62089,0.711201 h 0.2032 v -3.115737 h 1.422401 v 7.902231 H 53.579341 Z M 52.089206,46.90062 q 0.666045,0 1.072446,-0.417689 0.417689,-0.428978 0.417689,-1.117601 v -0.135467 q 0,-0.688623 -0.417689,-1.106312 -0.406401,-0.428979 -1.072446,-0.428979 -0.666045,0 -1.083734,0.41769 -0.406401,0.4064 -0.406401,1.117601 v 0.135467 q 0,0.7112 0.406401,1.12889 0.417689,0.4064 1.083734,0.4064 z"
         style="font-style:normal;font-variant:normal;font-weight:bold;font-stretch:normal;font-family:'Space Mono';-inkscape-font-specification:'Space Mono Bold';text-align:center;text-anchor:middle;fill:#ffffff"
         id="path959" />
      <path
         d="m 57.714782,45.760441 q 0.01129,0.248356 0.112889,0.462845 0.11289,0.2032 0.293512,0.361245 0.191911,0.146756 0.428978,0.237067 0.248356,0.07902 0.51929,0.07902 0.530578,0 0.8128,-0.180622 0.282223,-0.191912 0.406401,-0.451556 l 1.219201,0.677334 q -0.1016,0.214489 -0.282222,0.451556 -0.180623,0.225778 -0.474134,0.417689 -0.282223,0.191911 -0.699912,0.316089 -0.406401,0.124178 -0.959557,0.124178 -0.632178,0 -1.151467,-0.2032 -0.51929,-0.2032 -0.903113,-0.587023 -0.372533,-0.383822 -0.587022,-0.936979 -0.203201,-0.553156 -0.203201,-1.253067 v -0.06773 q 0,-0.643467 0.21449,-1.174046 0.225778,-0.530578 0.6096,-0.903112 0.383823,-0.372533 0.891823,-0.575733 0.51929,-0.21449 1.106313,-0.21449 0.722489,0 1.241779,0.259645 0.519289,0.248356 0.857956,0.643467 0.338667,0.383823 0.496712,0.857957 0.158044,0.462845 0.158044,0.903112 v 0.756356 z m 1.34338,-2.133602 q -0.541868,0 -0.880535,0.282223 -0.338667,0.270933 -0.440267,0.632178 h 2.641603 q -0.06773,-0.395111 -0.428978,-0.654756 -0.349956,-0.259645 -0.891823,-0.259645 z"
         style="font-style:normal;font-variant:normal;font-weight:bold;font-stretch:normal;font-family:'Space Mono';-inkscape-font-specification:'Space Mono Bold';text-align:center;text-anchor:middle;fill:#ffffff"
         id="path961" />
    </g>
    <g
       aria-label="{"
       id="text862"
       style="font-style:normal;font-weight:normal;font-size:49.38889999999999958px;line-height:1.25;font-family:sans-serif;fill:#ffffff;fill-opacity:1;stroke:none;stroke-width:0.264583">
      <path
         d="m 8.2438657,36.378443 q 0,1.432278 -0.4445001,2.173112 -0.3951112,0.740833 -1.3335003,1.135945 0.9383891,0.395111 1.3335003,1.135944 0.4445001,0.740834 0.4445001,2.173112 v 14.322781 q 0,4.04989 3.8029453,4.04989 h 1.531056 v 1.432278 h -1.382889 q -5.580946,0 -5.580946,-5.432779 v -14.37217 q 0,-2.617612 -2.2225005,-2.617612 H 2.6629199 v -1.432278 h 1.7286116 q 2.2225005,0 2.2225005,-2.568223 v -14.37217 q 0,-5.432779 5.580946,-5.432779 h 1.382889 v 1.432278 h -1.531056 q -3.8029453,0 -3.8029453,4.04989 z"
         style="font-style:normal;font-variant:normal;font-weight:normal;font-stretch:normal;font-family:Montserrat;-inkscape-font-specification:'Montserrat weight=280';stroke-width:0.264583;fill:#ffffff"
         id="path930" />
    </g>
    <g
       aria-label="}"
       id="text862-1"
       style="font-style:normal;font-weight:normal;font-size:49.38889999999999958px;line-height:1.25;font-family:sans-serif;fill:#ffffff;fill-opacity:1;stroke:none;stroke-width:0.264583">
      <path
         d="m 76.712082,38.946666 v 1.432278 H 74.98347 q -2.2225,0 -2.2225,2.617612 v 14.37217 q 0,5.432779 -5.580946,5.432779 h -1.382889 v -1.432278 h 1.531056 q 3.802945,0 3.802945,-4.04989 V 42.996556 q 0,-1.432278 0.395111,-2.173112 0.4445,-0.740833 1.382889,-1.135944 -0.938389,-0.395112 -1.382889,-1.135945 -0.395111,-0.740834 -0.395111,-2.173112 V 22.055662 q 0,-4.04989 -3.802945,-4.04989 h -1.531056 v -1.432278 h 1.382889 q 5.580946,0 5.580946,5.432779 v 14.37217 q 0,2.568223 2.2225,2.568223 z"
         style="font-style:normal;font-variant:normal;font-weight:normal;font-stretch:normal;font-family:Montserrat;-inkscape-font-specification:'Montserrat weight=280';stroke-width:0.264583;fill:#ffffff"
         id="path927" />
    </g>
  </g>
</svg>
